<svg xmlns="http://www.w3.org/2000/svg" viewBox="0 0 12.18 16.97"><defs><style>.a{fill:none;stroke:#000;stroke-linecap:round;stroke-linejoin:round;stroke-width:0.75px;fill-rule:evenodd;}</style></defs><path class="a" d="M8.25,5.47V5h0a1,1,0,0,0-1-1h-.4a1,1,0,0,0-1,1h0v.58a1,1,0,0,0-1-1h-.4a1.05,1.05,0,0,0-1,1h0v.34A.89.89,0,0,0,2.41,5H2.12a.89.89,0,0,0-.89.89h0V9.09a.9.9,0,0,0,.89.9h.27a.9.9,0,0,0,.9-.9v.07a1.23,1.23,0,0,0,1.23,1.23h0A1.23,1.23,0,0,0,5.76,9.16v.32A1.23,1.23,0,0,0,7,10.71H7A1.24,1.24,0,0,0,8.25,9.48V9.8h0A1.23,1.23,0,0,0,9.48,11h0A1.23,1.23,0,0,0,10.71,9.8h0V5.47h0a1,1,0,0,0-1-1h-.4a1,1,0,0,0-1,1"/><path class="a" d="M6,10.23a1.49,1.49,0,0,0-.21.77h0A1.23,1.23,0,0,0,7,12.23h3.54A1.22,1.22,0,0,0,11.8,11h0v-.86a1.55,1.55,0,0,0-.37-1l-.71-.83"/><path class="a" d="M11.09,4.16s-.41-.41.48-1.48c0,0-1.72.42-2.22,0s-.18-1.36-.18-1.36a3.53,3.53,0,0,1-1.62.82C6.56,2.16,6,.38,6,.38S5.41,2.16,4.42,2.16A3.47,3.47,0,0,1,2.8,1.34s.3,1-.19,1.36-2.22,0-2.22,0c.9,1.08.49,1.48.49,1.48"/><path class="a" d="M.86,12.82s.41.4-.48,1.47c0,0,1.72-.42,2.22,0s.18,1.35.18,1.35a3.55,3.55,0,0,1,1.62-.81c1,0,1.57,1.78,1.57,1.78s.58-1.81,1.57-1.79a3.49,3.49,0,0,1,1.62.81s-.31-.95.18-1.35,2.22,0,2.22,0c-.89-1.08-.48-1.48-.48-1.48"/></svg>