<svg xmlns="http://www.w3.org/2000/svg" viewBox="0 0 14.41 16.85"><defs><style>.a{fill:none;stroke:#000;stroke-linecap:round;stroke-linejoin:round;stroke-width:0.75px;fill-rule:evenodd;}</style></defs><path class="a" d="M4.14,4A1.87,1.87,0,1,0,2.27,5.83,1.87,1.87,0,0,0,4.14,4Z"/><path class="a" d="M7,6.28a1,1,0,0,1-.46-.87V5.34l0-4.45A.52.52,0,0,0,6.33.47h0A.53.53,0,0,0,6,.38a.51.51,0,0,0-.51.44l-.38,3A1.59,1.59,0,0,1,4.3,5l-2,1A2.46,2.46,0,0,0,1.06,7.71L.39,10.88a.49.49,0,0,0,0,.12.55.55,0,0,0,.33.5h0a.59.59,0,0,0,.23.05.55.55,0,0,0,.51-.36L2.28,9A.89.89,0,0,1,3.67,8.6L5.11,9.82,8.35,7.45Z"/><path class="a" d="M8.34,7.44l4.71-.61h.11a.87.87,0,0,1,.87.75h0s0,.08,0,.12a.88.88,0,0,1-.64.84L8.5,9.93a.92.92,0,0,0-.65.71l-1,5.22a.75.75,0,0,1-.74.61h0a.75.75,0,0,1-.76-.73L5.11,9.81"/></svg>