<svg xmlns="http://www.w3.org/2000/svg" viewBox="0 0 16.97 14.35"><defs><style>.a,.b{fill:none;stroke:#000;stroke-linecap:round;stroke-linejoin:round;stroke-width:0.75px;}.a{fill-rule:evenodd;}</style></defs><path class="a" d="M5.6,7.63C2.54,7.1.38,5.73.38,4.12.38,2.06,4,.38,8.48.38S16.6,2.06,16.6,4.12c0,1.61-2.18,3-5.24,3.51h0"/><line class="b" x1="11.21" y1="7.66" x2="11.21" y2="7.66"/><path class="a" d="M.85,5.42h0C2,4,5,2.94,8.48,2.94S15,4,16.11,5.4h0"/><path class="a" d="M.38,4.12V7.17c0,1,.89,2,2.35,2.64"/><path class="a" d="M16.6,4.12V7.17c0,1-.9,2-2.36,2.65"/><path class="a" d="M5.65,10.69l-.42-.08"/><line class="b" x1="11.72" y1="10.61" x2="11.31" y2="10.69"/><path class="a" d="M11.34,8.21v2.21a1.24,1.24,0,0,1,0,.27,1.3,1.3,0,0,1-1.28,1H6.93a1.3,1.3,0,0,1-1.28-1,1.07,1.07,0,0,1,0-.25V8.21a1.17,1.17,0,0,1,.13-.55.37.37,0,0,1,0-.11A1.3,1.3,0,0,1,6.92,6.9H10a1.3,1.3,0,0,1,1.12.65h0a.54.54,0,0,1,0,.11h0a1.32,1.32,0,0,1,.14.55Z"/><path class="a" d="M11.34,10.33a1,1,0,0,1,.39.27,7.48,7.48,0,0,1,1.15,3,.51.51,0,0,0,.5.4.51.51,0,0,0,.4-.2l.82-1A1.67,1.67,0,0,0,15,11.65a1.61,1.61,0,0,0-.06-.44,4.55,4.55,0,0,0-.68-1.4,6.79,6.79,0,0,0-2.88-2.18h0l-.2-.09h0"/><path class="a" d="M11.34,9.22a3.59,3.59,0,0,1,1.73,1,2.06,2.06,0,0,1,.33.55"/><path class="a" d="M5.8,7.55l-.2.08A6.84,6.84,0,0,0,2.71,9.81,4.84,4.84,0,0,0,2,11.22a1.61,1.61,0,0,0-.06.44,1.67,1.67,0,0,0,.38,1.07l.81,1a.54.54,0,0,0,.4.2.51.51,0,0,0,.5-.4,7.34,7.34,0,0,1,1.16-3,.9.9,0,0,1,.38-.29"/><path class="a" d="M3.56,10.79a2,2,0,0,1,.33-.54,3.47,3.47,0,0,1,1.73-1"/><path class="a" d="M5.75,7.66C5.58,7.6,10.37,9.05,10,11.73"/><path class="a" d="M6.93,11.73s-.31-2.41,4.28-4.07"/></svg>