<svg xmlns="http://www.w3.org/2000/svg" viewBox="0 0 16.3 16.92"><defs><style>.a,.b{fill:none;stroke:#000;stroke-linecap:round;stroke-linejoin:round;stroke-width:0.75px;}.b{fill-rule:evenodd;}</style></defs><rect class="a" x="4.98" y="6.71" width="1.58" height="2.52" rx="0.75"/><path class="b" d="M9.73,7.68V9.43a.79.79,0,1,1-1.58,0V7.5h0a.79.79,0,0,1,.36-.66"/><path class="b" d="M7.31,6.71H7.4a.76.76,0,0,1,.75.75V9a.76.76,0,0,1-.75.75H7.31A.76.76,0,0,1,6.56,9V7.46a.76.76,0,0,1,.75-.75Z"/><path class="b" d="M11.29,7.3a.64.64,0,0,1,0,.2h0V9.16a.8.8,0,0,1-1.59,0V7.68"/><path class="b" d="M9.75,2.17a2.11,2.11,0,0,1,2.1,2.11v2h0a1,1,0,0,1-.61,1l-1.7.42-.2,0a.85.85,0,0,1-.82-.63h0a1.36,1.36,0,0,1,0-.2.83.83,0,0,1,.64-.81l1.19-.35"/><path class="b" d="M5,7.5V4.28H5a2.1,2.1,0,0,1,2.1-2.11h.8"/><path class="b" d="M9.56,6S8.8,5.75,8.8,4.27"/><line class="a" x1="6.39" y1="2.3" x2="6.39" y2="0.38"/><line class="a" x1="10.45" y1="2.3" x2="10.45" y2="0.38"/><rect class="a" x="0.38" y="11.52" width="15.55" height="2.12"/><polyline class="b" points="3.78 13.65 3.78 16.55 1.72 16.55 1.72 13.65"/><polyline class="b" points="14.58 13.65 14.58 16.55 12.52 16.55 12.52 13.65"/><path class="b" d="M12.52,9.63s.27-.27,1,.32c0,0-.28-1.15,0-1.48s.9-.13.9-.13a2.36,2.36,0,0,1-.54-1.08c0-.66,1.19-1,1.19-1s-1.19-.39-1.19-1a2.31,2.31,0,0,1,.54-1.08s-.63.2-.9-.12,0-1.49,0-1.49c-.71.6-1,.33-1,.33"/><path class="b" d="M4,9.63S3.74,9.36,3,10c0,0,.27-1.15,0-1.48s-.9-.13-.9-.13a2.36,2.36,0,0,0,.54-1.08c0-.66-1.19-1-1.19-1s1.2-.39,1.19-1a2.31,2.31,0,0,0-.54-1.08s.64.19.9-.13S3,2.47,3,2.47c.71.6,1,.33,1,.33"/></svg>