<svg xmlns="http://www.w3.org/2000/svg" viewBox="0 0 15.13 16.73"><defs><style>.a,.b{fill:none;stroke:#000;stroke-linecap:round;stroke-linejoin:round;stroke-width:0.75px;}.a{fill-rule:evenodd;}</style></defs><path class="a" d="M9.78,2.59A2.22,2.22,0,1,0,7.57,4.81,2.21,2.21,0,0,0,9.78,2.59Z"/><path class="a" d="M8.65,4.52l.4.48a3.29,3.29,0,0,0,.77.67,3.25,3.25,0,0,0,.9.38,1.81,1.81,0,0,1,1.35,1.51l.29,2.21a1.38,1.38,0,0,0,.34.72l1.78,2a.65.65,0,0,1,.18.46.57.57,0,0,1,0,.13.65.65,0,0,1-1.13.39L11.84,12.1a1.82,1.82,0,0,1-.64-1l-.54-2.32V13h0a.68.68,0,0,0,.68.68h2a1.4,1.4,0,0,1,1.39,1.4h0a1.35,1.35,0,0,1-1.35,1.3H1.77A1.4,1.4,0,0,1,.38,15a1.35,1.35,0,0,1,1.34-1.3H3.79A.67.67,0,0,0,4.46,13V8.77l-.54,2.32a1.8,1.8,0,0,1-.63,1L1.58,13.45a.68.68,0,0,1-.43.15.69.69,0,0,1-.51-1.15l1.8-2a1.32,1.32,0,0,0,.33-.73l.28-2.2a1.82,1.82,0,0,1,1.36-1.5,3.84,3.84,0,0,0,.91-.39A3.68,3.68,0,0,0,6.08,5l.41-.49"/><path class="a" d="M1.73,13.66l5.87,1a1.73,1.73,0,0,1,1.32,1.68h0"/><line class="b" x1="13.41" y1="13.66" x2="7.58" y2="14.67"/></svg>